<!-- Generated by IcoMoon.io -->
<svg version="1.1" xmlns="http://www.w3.org/2000/svg" width="20" height="32" viewBox="0 0 20 32">
<path fill="#ff9500" d="M6.243 30.738h7.377c4.202 0 6.278-2.157 6.242-6.471-0.048-4.927-0.072-8.505-0.193-11.19-0.35-7.893-2.535-10.209-9.731-10.209s-9.393 2.316-9.743 10.209c-0.121 2.684-0.145 6.263-0.193 11.19-0.036 4.314 2.040 6.471 6.242 6.471zM5.892 25.872c-1.038 0-1.702-0.686-1.702-1.716v-6.324c0-1.042 0.664-1.728 1.702-1.728h8.089c1.026 0 1.69 0.686 1.69 1.728v6.324c0 1.029-0.664 1.716-1.69 1.716h-8.089zM4.19 20.823h11.482v-1.459h-11.482v1.459zM9.937 0c-2.318 0-3.948 1.593-3.948 3.763h1.702c0-1.189 0.918-2.034 2.246-2.034 1.316 0 2.246 0.846 2.246 2.034h1.702c0-2.169-1.642-3.763-3.948-3.763z"></path>
</svg>
