<!-- Generated by IcoMoon.io -->
<svg version="1.1" xmlns="http://www.w3.org/2000/svg" width="27" height="32" viewBox="0 0 27 32">
<path fill="#ff9500" d="M12.781 31.547c0.25 0 0.641-0.094 1.031-0.297 8.891-4.656 11.75-6.984 11.75-12.594v-11.781c0-1.609-0.688-2.125-2-2.672-1.828-0.75-7.672-2.875-9.484-3.5-0.422-0.141-0.859-0.219-1.297-0.219s-0.875 0.094-1.281 0.219c-1.828 0.594-7.672 2.766-9.5 3.5-1.297 0.531-2 1.063-2 2.672v11.781c0 5.609 3.016 7.672 11.75 12.594 0.406 0.219 0.781 0.297 1.031 0.297zM5.734 16.531c0-0.187 0.094-0.422 0.266-0.625l8.828-11.078c0.672-0.844 1.797-0.281 1.391 0.766l-2.906 7.813h5.453c0.422 0 0.734 0.297 0.734 0.719 0 0.187-0.094 0.422-0.266 0.625l-8.828 11.078c-0.672 0.844-1.781 0.281-1.391-0.75l2.922-7.828h-5.469c-0.406 0-0.734-0.297-0.734-0.719z"></path>
</svg>
