<!-- Generated by IcoMoon.io -->
<svg version="1.1" xmlns="http://www.w3.org/2000/svg" width="25" height="32" viewBox="0 0 25 32">
<path fill="#ff9500" d="M4.428 30.909h18.678c0.635 0 1.154-0.505 1.154-1.154 0-0.505-0.346-0.952-0.808-1.111-1.817-0.721-2.192-3.072-0.404-4.875 0.548-0.548 1.211-1.255 1.211-2.697v-16.543c0-3-1.486-4.529-4.471-4.529h-15.317c-2.986 0-4.471 1.514-4.471 4.529v21.923c0 2.971 1.5 4.457 4.428 4.457zM4.558 28.587c-1.457 0-2.236-0.779-2.236-2.149 0-1.298 0.923-2.135 2.365-2.135h14.798c0.188 0 0.361-0.014 0.505-0.043-0.678 1.5-0.562 3.087 0.202 4.327h-15.635zM4.125 22.111c-0.447 0-0.822-0.375-0.822-0.836v-18.216c0-0.462 0.375-0.822 0.822-0.822s0.837 0.361 0.837 0.822v18.216c0 0.462-0.389 0.836-0.837 0.836z"></path>
</svg>
