<!-- Generated by IcoMoon.io -->
<svg version="1.1" xmlns="http://www.w3.org/2000/svg" width="31" height="32" viewBox="0 0 31 32">
<path d="M3.886 9.2c0-0.537 0.435-0.971 0.971-0.971h21.371c0.537 0 0.971 0.435 0.971 0.971s-0.435 0.971-0.971 0.971h-21.371c-0.537 0-0.971-0.435-0.971-0.971zM3.886 16c0-0.537 0.435-0.971 0.971-0.971h21.371c0.537 0 0.971 0.435 0.971 0.971s-0.435 0.971-0.971 0.971h-21.371c-0.537 0-0.971-0.435-0.971-0.971zM14.571 22.8c0-0.537 0.435-0.971 0.971-0.971h10.686c0.537 0 0.971 0.435 0.971 0.971s-0.435 0.971-0.971 0.971h-10.686c-0.537 0-0.971-0.435-0.971-0.971z"></path>
</svg>
