<!-- Generated by IcoMoon.io -->
<svg version="1.1" xmlns="http://www.w3.org/2000/svg" width="39" height="32" viewBox="0 0 39 32">
<path fill="#ff9500" d="M6.5 24.58l0.456 1.843c0.577 2.397 1.838 3.626 4.344 3.626h16.357c2.521 0 3.767-1.198 4.359-3.626l0.456-1.843h-25.971zM5.999 22.475h26.989l2.855-11.829-1.245-0.722-7.001 5.162c-0.516 0.369-0.866 0.23-1.154-0.184l-6.591-10.078-0.729-0.031-6.652 10.155c-0.258 0.399-0.562 0.522-1.078 0.154l-6.865-5.070-1.458 0.384 2.931 12.059zM3.63 13.719c2.005 0 3.615-1.644 3.615-3.687 0-1.997-1.61-3.656-3.615-3.656s-3.63 1.644-3.63 3.656c0 2.043 1.64 3.687 3.63 3.687zM19.486 7.328c1.99 0 3.615-1.644 3.615-3.672 0-1.997-1.625-3.656-3.615-3.656-2.020 0-3.63 1.644-3.63 3.656 0 2.028 1.625 3.672 3.63 3.672zM35.327 13.719c1.99 0 3.63-1.644 3.63-3.687 0-2.012-1.625-3.656-3.63-3.656-1.99 0-3.615 1.659-3.615 3.656 0 2.043 1.625 3.687 3.615 3.687z"></path>
</svg>
