<!-- Generated by IcoMoon.io -->
<svg version="1.1" xmlns="http://www.w3.org/2000/svg" width="33" height="32" viewBox="0 0 33 32">
<path fill="#ff9500" d="M27.097 28.097c0.625 0 1.139-0.5 1.139-1.111 0-0.625-0.514-1.139-1.139-1.139h-1.694v-9.208c0-5.069-3.903-8.986-8.972-8.986-5.056 0-8.958 3.917-8.958 8.986v9.208h-1.722c-0.611 0-1.097 0.514-1.097 1.139 0 0.611 0.486 1.111 1.097 1.111h21.347zM17.597 16.681v9.167h-2.306v-9.167c0-0.639 0.5-1.167 1.139-1.167s1.167 0.528 1.167 1.167zM3.847 17.639c0.653 0 1.222-0.542 1.222-1.181 0-0.667-0.569-1.208-1.222-1.208h-2.667c-0.639 0-1.181 0.556-1.181 1.208 0 0.625 0.542 1.181 1.181 1.181h2.667zM6.694 8.403c0.458 0.458 1.222 0.472 1.681 0 0.472-0.472 0.458-1.222 0-1.681l-1.875-1.889c-0.444-0.472-1.222-0.472-1.694 0-0.458 0.472-0.458 1.208 0 1.681l1.889 1.889zM15.236 3.875c0 0.653 0.542 1.208 1.194 1.208 0.667 0 1.208-0.556 1.208-1.208v-2.667c0-0.653-0.555-1.208-1.208-1.208s-1.194 0.556-1.194 1.208v2.667zM24.472 6.722c-0.458 0.458-0.472 1.208 0 1.681 0.486 0.472 1.222 0.458 1.681 0l1.903-1.889c0.458-0.472 0.458-1.208 0-1.681-0.486-0.472-1.222-0.472-1.681 0l-1.903 1.889zM31.667 17.639c0.653 0 1.208-0.555 1.208-1.181 0-0.653-0.556-1.208-1.208-1.208h-2.667c-0.639 0-1.195 0.542-1.195 1.208 0 0.639 0.556 1.181 1.195 1.181h2.667z"></path>
</svg>
