<!-- Generated by IcoMoon.io -->
<svg version="1.1" xmlns="http://www.w3.org/2000/svg" width="32" height="32" viewBox="0 0 32 32">
<path d="M15.386 29.801c-0.081-0.047-0.196-0.115-0.34-0.204-0.289-0.178-0.698-0.441-1.185-0.785-0.974-0.688-2.274-1.709-3.576-3.042-2.592-2.654-5.285-6.641-5.285-11.77 0-6.075 4.925-11 11-11s11 4.925 11 11c0 5.128-2.692 9.116-5.285 11.77-1.302 1.333-2.602 2.354-3.576 3.042-0.488 0.345-0.896 0.607-1.185 0.785-0.145 0.089-0.26 0.157-0.34 0.204-0.040 0.023-0.072 0.041-0.094 0.054l-0.038 0.021c-0.297 0.161-0.666 0.163-0.963-0.001l-0.037-0.021c-0.022-0.013-0.054-0.031-0.094-0.054zM16 18c2.209 0 4-1.791 4-4s-1.791-4-4-4-4 1.791-4 4c0 2.209 1.791 4 4 4z"></path>
</svg>
