<!-- Generated by IcoMoon.io -->
<svg version="1.1" xmlns="http://www.w3.org/2000/svg" width="27" height="32" viewBox="0 0 27 32">
<path fill="#ff9500" d="M13.212 31.333c4.889 0 8.833-3.944 8.833-8.819 0-4.889-3.944-8.833-8.833-8.833-4.875 0-8.819 3.944-8.819 8.833 0 4.875 3.944 8.819 8.819 8.819zM10.699 27.056c-0.528 0.389-1.083-0.014-0.875-0.625l1-2.986-2.556-1.819c-0.486-0.361-0.333-1.042 0.333-1.042l3.139 0.028 0.958-3c0.194-0.611 0.861-0.611 1.056 0l0.958 3 3.139-0.028c0.667 0 0.806 0.694 0.333 1.028l-2.556 1.833 1 2.986c0.208 0.611-0.347 1.014-0.875 0.625l-2.528-1.847-2.528 1.847zM4.754 15.903c1.361-1.722 3.236-3.028 5.389-3.667l-6.292-11.306-3.653 5.569c-0.25 0.361-0.264 0.764-0.042 1.125l4.597 8.278zM10.101 7.5h6.236l4.236-7.5h-14.708l4.236 7.5zM16.296 12.236c2.167 0.639 4.028 1.944 5.389 3.667l4.611-8.278c0.208-0.361 0.195-0.764-0.055-1.125l-3.653-5.569-6.292 11.306z"></path>
</svg>
