<!-- Generated by IcoMoon.io -->
<svg version="1.1" xmlns="http://www.w3.org/2000/svg" width="47" height="32" viewBox="0 0 47 32">
<path fill="#ff9500" d="M0 15.975c0 3.384 2.345 5.242 4.983 5.242 1.107 0 1.938-0.315 2.931-0.946 0.928-0.581 1.596-0.232 1.596 0.581v6.138c0 3.268 1.694 4.944 4.934 4.944h4.348c0.782 0 1.124-0.664 0.57-1.609-0.635-1.012-0.945-1.858-0.945-2.986 0-2.687 1.84-5.076 5.162-5.076s5.146 2.389 5.146 5.076c0 1.128-0.31 1.974-0.928 2.986-0.554 0.946-0.228 1.609 0.57 1.609h4.348c3.24 0 4.934-1.675 4.934-4.944v-6.138c0-0.813 0.668-1.161 1.58-0.581 1.010 0.63 1.84 0.946 2.931 0.946 2.654 0 4.999-1.858 4.999-5.242 0-3.401-2.345-5.259-4.999-5.259-1.091 0-1.921 0.315-2.931 0.946-0.912 0.581-1.58 0.232-1.58-0.581v-6.138c0-3.251-1.693-4.944-4.934-4.944h-4.348c-0.798 0-1.124 0.68-0.57 1.626 0.619 1.012 0.928 1.858 0.928 2.986 0 2.687-1.824 5.076-5.146 5.076s-5.162-2.389-5.162-5.076c0-1.128 0.309-1.974 0.945-2.986 0.554-0.946 0.212-1.626-0.57-1.626h-4.348c-3.24 0-4.934 1.692-4.934 4.944v6.138c0 0.813-0.668 1.161-1.596 0.581-0.993-0.63-1.824-0.946-2.931-0.946-2.638 0-4.983 1.858-4.983 5.259z"></path>
</svg>
