<!-- Generated by IcoMoon.io -->
<svg version="1.1" xmlns="http://www.w3.org/2000/svg" width="95" height="32" viewBox="0 0 95 32">
<path fill="#4c4c4d" d="M14.718 2.053c-7.732 0-14 6.268-14 14s6.268 14 14 14c7.733 0 14-6.268 14-14 0-7.731-6.268-13.999-14.001-13.999l0-0.001zM21.138 22.245c-0.251 0.411-0.789 0.542-1.2 0.289-3.287-2.008-7.425-2.463-12.298-1.349-0.47 0.107-0.938-0.187-1.045-0.657s0.186-0.938 0.656-1.045c5.333-1.218 9.908-0.694 13.598 1.561 0.411 0.252 0.542 0.789 0.289 1.2zM22.852 18.433c-0.316 0.514-0.988 0.676-1.501 0.36-3.763-2.313-9.5-2.983-13.951-1.632-0.577 0.174-1.187-0.151-1.362-0.727-0.174-0.577 0.152-1.186 0.728-1.361 5.085-1.543 11.405-0.795 15.727 1.86 0.513 0.316 0.675 0.988 0.359 1.501v-0zM22.999 14.463c-4.512-2.68-11.957-2.927-16.265-1.619-0.692 0.21-1.423-0.181-1.633-0.873s0.181-1.423 0.873-1.634c4.945-1.501 13.166-1.211 18.362 1.873 0.624 0.369 0.827 1.173 0.458 1.794-0.368 0.622-1.174 0.827-1.794 0.458h-0.001zM38.807 14.977c-2.417-0.576-2.847-0.981-2.847-1.831 0-0.803 0.756-1.344 1.881-1.344 1.090 0 2.17 0.41 3.303 1.255 0.033 0.026 0.077 0.036 0.119 0.029 0.043-0.006 0.080-0.030 0.105-0.065l1.18-1.664c0.048-0.069 0.035-0.163-0.030-0.215-1.349-1.082-2.867-1.608-4.643-1.608-2.61 0-4.434 1.566-4.434 3.807 0 2.403 1.573 3.254 4.292 3.911 2.312 0.533 2.703 0.979 2.703 1.777 0 0.884-0.789 1.434-2.060 1.434-1.411 0-2.563-0.476-3.85-1.59-0.032-0.028-0.075-0.040-0.115-0.038-0.043 0.003-0.082 0.023-0.109 0.055l-1.324 1.575c-0.055 0.067-0.049 0.164 0.015 0.221 1.498 1.337 3.34 2.043 5.33 2.043 2.812 0 4.629-1.536 4.629-3.915 0.005-2.007-1.197-3.119-4.141-3.835l-0.005-0.002zM49.317 12.593c-1.219 0-2.219 0.48-3.044 1.464v-1.107c0-0.087-0.070-0.159-0.157-0.159h-2.165c-0.087 0-0.157 0.071-0.157 0.159v12.305c0 0.087 0.070 0.159 0.157 0.159h2.165c0.087 0 0.157-0.072 0.157-0.159v-3.884c0.826 0.925 1.826 1.378 3.044 1.378 2.265 0 4.559-1.744 4.559-5.077 0.003-3.334-2.29-5.078-4.557-5.078l-0.002 0zM51.358 17.671c0 1.697-1.045 2.882-2.543 2.882-1.48 0-2.596-1.239-2.596-2.882s1.117-2.882 2.596-2.882c1.473-0 2.543 1.212 2.543 2.882v0zM59.752 12.593c-2.917 0-5.203 2.246-5.203 5.114 0 2.837 2.27 5.059 5.168 5.059 2.927 0 5.219-2.239 5.219-5.096 0-2.847-2.277-5.078-5.184-5.078v-0zM59.752 20.569c-1.551 0-2.722-1.247-2.722-2.9 0-1.66 1.13-2.864 2.687-2.864 1.561 0 2.738 1.247 2.738 2.901 0 1.66-1.137 2.863-2.703 2.863zM71.165 12.791h-2.382v-2.435c0-0.087-0.070-0.158-0.157-0.158h-2.165c-0.087 0-0.159 0.071-0.159 0.158v2.435h-1.040c-0.087 0-0.157 0.071-0.157 0.159v1.86c0 0.087 0.070 0.159 0.157 0.159h1.040v4.814c0 1.944 0.968 2.931 2.879 2.931 0.776 0 1.419-0.161 2.026-0.505 0.050-0.027 0.080-0.080 0.080-0.137v-1.772c0-0.053-0.028-0.105-0.075-0.134-0.047-0.030-0.105-0.032-0.154-0.007-0.416 0.209-0.819 0.306-1.271 0.306-0.694 0-1.005-0.316-1.005-1.021v-4.474h2.382c0.087 0 0.157-0.071 0.157-0.159v-1.86c0.003-0.087-0.067-0.159-0.155-0.159l-0.002-0.001zM79.464 12.8v-0.299c0-0.88 0.338-1.272 1.093-1.272 0.451 0 0.814 0.090 1.22 0.225 0.050 0.016 0.102 0.008 0.142-0.022 0.042-0.030 0.065-0.078 0.065-0.129v-1.824c0-0.070-0.043-0.131-0.112-0.152-0.428-0.128-0.976-0.258-1.799-0.258-1.998 0-3.056 1.126-3.056 3.255v0.458h-1.040c-0.087 0-0.159 0.071-0.159 0.159v1.87c0 0.087 0.072 0.159 0.159 0.159h1.040v7.424c0 0.089 0.072 0.159 0.159 0.159h2.163c0.089 0 0.159-0.070 0.159-0.159v-7.423h2.021l3.096 7.423c-0.351 0.779-0.697 0.935-1.169 0.935-0.381 0-0.784-0.114-1.194-0.339-0.038-0.020-0.085-0.023-0.125-0.012-0.042 0.015-0.077 0.045-0.094 0.085l-0.734 1.61c-0.035 0.077-0.005 0.166 0.069 0.206 0.766 0.415 1.456 0.592 2.31 0.592 1.598 0 2.483-0.746 3.26-2.748l3.755-9.703c0.020-0.049 0.013-0.104-0.017-0.147-0.028-0.043-0.077-0.069-0.129-0.069h-2.254c-0.069 0-0.129 0.043-0.15 0.106l-2.309 6.593-2.528-6.597c-0.023-0.061-0.082-0.102-0.147-0.102l-3.698-0.001zM74.653 12.791h-2.165c-0.087 0-0.159 0.071-0.159 0.159v9.443c0 0.089 0.072 0.159 0.159 0.159h2.165c0.087 0 0.159-0.070 0.159-0.159v-9.442c0-0.087-0.070-0.159-0.159-0.159v-0.001zM73.583 8.491c-0.858 0-1.553 0.694-1.553 1.552s0.695 1.553 1.553 1.553c0.858 0 1.551-0.695 1.551-1.553s-0.695-1.552-1.551-1.552zM92.545 15.827c-0.856 0-1.523-0.688-1.523-1.523s0.675-1.531 1.531-1.531c0.856 0 1.523 0.688 1.523 1.523s-0.675 1.532-1.531 1.532zM92.553 12.924c-0.781 0-1.371 0.62-1.371 1.38s0.587 1.371 1.363 1.371c0.781 0 1.371-0.62 1.371-1.38s-0.587-1.371-1.363-1.371zM92.891 14.451l0.431 0.603h-0.364l-0.388-0.553h-0.333v0.553h-0.304v-1.599h0.712c0.373 0 0.617 0.19 0.617 0.51 0.002 0.262-0.151 0.422-0.369 0.486h-0.002zM92.633 13.73h-0.396v0.506h0.396c0.197 0 0.316-0.097 0.316-0.253 0-0.165-0.119-0.253-0.316-0.253z"></path>
</svg>
