<svg aria-hidden="true" style="position: absolute; width: 0; height: 0; overflow: hidden;" version="1.1" xmlns="http://www.w3.org/2000/svg" xmlns:xlink="http://www.w3.org/1999/xlink">
<defs>
<symbol id="icon-Abstractlogo-390" viewBox="0 0 45 32">
<path fill="#f7f7f8" style="fill: var(--color1, #f7f7f8)" d="M5.478 48.205l14.242-14.242h14.242v-14.242l14.242 14.242-14.242 14.242h-28.485z"></path>
<path fill="#f7f7f8" style="fill: var(--color1, #f7f7f8)" d="M5.478 19.72l14.242 14.242v-14.242h14.242l14.242-14.242h-28.485l-14.242 14.242z"></path>
</symbol>
<symbol id="icon-backpack" viewBox="0 0 20 32">
<path fill="#ff9500" style="fill: var(--color2, #ff9500)" d="M6.243 30.738h7.377c4.202 0 6.278-2.157 6.242-6.471-0.048-4.927-0.072-8.505-0.193-11.19-0.35-7.893-2.535-10.209-9.731-10.209s-9.393 2.316-9.743 10.209c-0.121 2.684-0.145 6.263-0.193 11.19-0.036 4.314 2.040 6.471 6.242 6.471zM5.892 25.872c-1.038 0-1.702-0.686-1.702-1.716v-6.324c0-1.042 0.664-1.728 1.702-1.728h8.089c1.026 0 1.69 0.686 1.69 1.728v6.324c0 1.029-0.664 1.716-1.69 1.716h-8.089zM4.19 20.823h11.482v-1.459h-11.482v1.459zM9.937 0c-2.318 0-3.948 1.593-3.948 3.763h1.702c0-1.189 0.918-2.034 2.246-2.034 1.316 0 2.246 0.846 2.246 2.034h1.702c0-2.169-1.642-3.763-3.948-3.763z"></path>
</symbol>
<symbol id="icon-boltshield" viewBox="0 0 27 32">
<path fill="#ff9500" style="fill: var(--color2, #ff9500)" d="M12.781 31.547c0.25 0 0.641-0.094 1.031-0.297 8.891-4.656 11.75-6.984 11.75-12.594v-11.781c0-1.609-0.688-2.125-2-2.672-1.828-0.75-7.672-2.875-9.484-3.5-0.422-0.141-0.859-0.219-1.297-0.219s-0.875 0.094-1.281 0.219c-1.828 0.594-7.672 2.766-9.5 3.5-1.297 0.531-2 1.063-2 2.672v11.781c0 5.609 3.016 7.672 11.75 12.594 0.406 0.219 0.781 0.297 1.031 0.297zM5.734 16.531c0-0.187 0.094-0.422 0.266-0.625l8.828-11.078c0.672-0.844 1.797-0.281 1.391 0.766l-2.906 7.813h5.453c0.422 0 0.734 0.297 0.734 0.719 0 0.187-0.094 0.422-0.266 0.625l-8.828 11.078c-0.672 0.844-1.781 0.281-1.391-0.75l2.922-7.828h-5.469c-0.406 0-0.734-0.297-0.734-0.719z"></path>
</symbol>
<symbol id="icon-bookclosed" viewBox="0 0 25 32">
<path fill="#ff9500" style="fill: var(--color2, #ff9500)" d="M4.428 30.909h18.678c0.635 0 1.154-0.505 1.154-1.154 0-0.505-0.346-0.952-0.808-1.111-1.817-0.721-2.192-3.072-0.404-4.875 0.548-0.548 1.211-1.255 1.211-2.697v-16.543c0-3-1.486-4.529-4.471-4.529h-15.317c-2.986 0-4.471 1.514-4.471 4.529v21.923c0 2.971 1.5 4.457 4.428 4.457zM4.558 28.587c-1.457 0-2.236-0.779-2.236-2.149 0-1.298 0.923-2.135 2.365-2.135h14.798c0.188 0 0.361-0.014 0.505-0.043-0.678 1.5-0.562 3.087 0.202 4.327h-15.635zM4.125 22.111c-0.447 0-0.822-0.375-0.822-0.836v-18.216c0-0.462 0.375-0.822 0.822-0.822s0.837 0.361 0.837 0.822v18.216c0 0.462-0.389 0.836-0.837 0.836z"></path>
</symbol>
<symbol id="icon-crown" viewBox="0 0 39 32">
<path fill="#ff9500" style="fill: var(--color2, #ff9500)" d="M6.5 24.58l0.456 1.843c0.577 2.397 1.838 3.626 4.344 3.626h16.357c2.521 0 3.767-1.198 4.359-3.626l0.456-1.843h-25.971zM5.999 22.475h26.989l2.855-11.829-1.245-0.722-7.001 5.162c-0.516 0.369-0.866 0.23-1.154-0.184l-6.591-10.078-0.729-0.031-6.652 10.155c-0.258 0.399-0.562 0.522-1.078 0.154l-6.865-5.070-1.458 0.384 2.931 12.059zM3.63 13.719c2.005 0 3.615-1.644 3.615-3.687 0-1.997-1.61-3.656-3.615-3.656s-3.63 1.644-3.63 3.656c0 2.043 1.64 3.687 3.63 3.687zM19.486 7.328c1.99 0 3.615-1.644 3.615-3.672 0-1.997-1.625-3.656-3.615-3.656-2.020 0-3.63 1.644-3.63 3.656 0 2.028 1.625 3.672 3.63 3.672zM35.327 13.719c1.99 0 3.63-1.644 3.63-3.687 0-2.012-1.625-3.656-3.63-3.656-1.99 0-3.615 1.659-3.615 3.656 0 2.043 1.625 3.687 3.615 3.687z"></path>
</symbol>
<symbol id="icon-lightbeaconmax" viewBox="0 0 33 32">
<path fill="#ff9500" style="fill: var(--color2, #ff9500)" d="M27.097 28.097c0.625 0 1.139-0.5 1.139-1.111 0-0.625-0.514-1.139-1.139-1.139h-1.694v-9.208c0-5.069-3.903-8.986-8.972-8.986-5.056 0-8.958 3.917-8.958 8.986v9.208h-1.722c-0.611 0-1.097 0.514-1.097 1.139 0 0.611 0.486 1.111 1.097 1.111h21.347zM17.597 16.681v9.167h-2.306v-9.167c0-0.639 0.5-1.167 1.139-1.167s1.167 0.528 1.167 1.167zM3.847 17.639c0.653 0 1.222-0.542 1.222-1.181 0-0.667-0.569-1.208-1.222-1.208h-2.667c-0.639 0-1.181 0.556-1.181 1.208 0 0.625 0.542 1.181 1.181 1.181h2.667zM6.694 8.403c0.458 0.458 1.222 0.472 1.681 0 0.472-0.472 0.458-1.222 0-1.681l-1.875-1.889c-0.444-0.472-1.222-0.472-1.694 0-0.458 0.472-0.458 1.208 0 1.681l1.889 1.889zM15.236 3.875c0 0.653 0.542 1.208 1.194 1.208 0.667 0 1.208-0.556 1.208-1.208v-2.667c0-0.653-0.555-1.208-1.208-1.208s-1.194 0.556-1.194 1.208v2.667zM24.472 6.722c-0.458 0.458-0.472 1.208 0 1.681 0.486 0.472 1.222 0.458 1.681 0l1.903-1.889c0.458-0.472 0.458-1.208 0-1.681-0.486-0.472-1.222-0.472-1.681 0l-1.903 1.889zM31.667 17.639c0.653 0 1.208-0.555 1.208-1.181 0-0.653-0.556-1.208-1.208-1.208h-2.667c-0.639 0-1.195 0.542-1.195 1.208 0 0.639 0.556 1.181 1.195 1.181h2.667z"></path>
</symbol>
<symbol id="icon-medal" viewBox="0 0 27 32">
<path fill="#ff9500" style="fill: var(--color2, #ff9500)" d="M13.212 31.333c4.889 0 8.833-3.944 8.833-8.819 0-4.889-3.944-8.833-8.833-8.833-4.875 0-8.819 3.944-8.819 8.833 0 4.875 3.944 8.819 8.819 8.819zM10.699 27.056c-0.528 0.389-1.083-0.014-0.875-0.625l1-2.986-2.556-1.819c-0.486-0.361-0.333-1.042 0.333-1.042l3.139 0.028 0.958-3c0.194-0.611 0.861-0.611 1.056 0l0.958 3 3.139-0.028c0.667 0 0.806 0.694 0.333 1.028l-2.556 1.833 1 2.986c0.208 0.611-0.347 1.014-0.875 0.625l-2.528-1.847-2.528 1.847zM4.754 15.903c1.361-1.722 3.236-3.028 5.389-3.667l-6.292-11.306-3.653 5.569c-0.25 0.361-0.264 0.764-0.042 1.125l4.597 8.278zM10.101 7.5h6.236l4.236-7.5h-14.708l4.236 7.5zM16.296 12.236c2.167 0.639 4.028 1.944 5.389 3.667l4.611-8.278c0.208-0.361 0.195-0.764-0.055-1.125l-3.653-5.569-6.292 11.306z"></path>
</symbol>
<symbol id="icon-puzzlepiece" viewBox="0 0 47 32">
<path fill="#ff9500" style="fill: var(--color2, #ff9500)" d="M0 15.975c0 3.384 2.345 5.242 4.983 5.242 1.107 0 1.938-0.315 2.931-0.946 0.928-0.581 1.596-0.232 1.596 0.581v6.138c0 3.268 1.694 4.944 4.934 4.944h4.348c0.782 0 1.124-0.664 0.57-1.609-0.635-1.012-0.945-1.858-0.945-2.986 0-2.687 1.84-5.076 5.162-5.076s5.146 2.389 5.146 5.076c0 1.128-0.31 1.974-0.928 2.986-0.554 0.946-0.228 1.609 0.57 1.609h4.348c3.24 0 4.934-1.675 4.934-4.944v-6.138c0-0.813 0.668-1.161 1.58-0.581 1.010 0.63 1.84 0.946 2.931 0.946 2.654 0 4.999-1.858 4.999-5.242 0-3.401-2.345-5.259-4.999-5.259-1.091 0-1.921 0.315-2.931 0.946-0.912 0.581-1.58 0.232-1.58-0.581v-6.138c0-3.251-1.693-4.944-4.934-4.944h-4.348c-0.798 0-1.124 0.68-0.57 1.626 0.619 1.012 0.928 1.858 0.928 2.986 0 2.687-1.824 5.076-5.146 5.076s-5.162-2.389-5.162-5.076c0-1.128 0.309-1.974 0.945-2.986 0.554-0.946 0.212-1.626-0.57-1.626h-4.348c-3.24 0-4.934 1.692-4.934 4.944v6.138c0 0.813-0.668 1.161-1.596 0.581-0.993-0.63-1.824-0.946-2.931-0.946-2.638 0-4.983 1.858-4.983 5.259z"></path>
</symbol>
<symbol id="icon-theatermasks" viewBox="0 0 45 32">
<path fill="#ff9500" style="fill: var(--color2, #ff9500)" d="M16.863 27.149c6.349-1.747 9.066-6.766 7.276-13.532l-2.408-9.197c-0.657-2.47-2.254-3.363-4.713-2.706l-12.762 3.455c-2.473 0.683-3.387 2.26-2.73 4.782l2.395 9.183c1.764 6.753 6.594 9.748 12.943 8.014zM15.652 22.446c-2.692 0.709-5.306-0.223-6.684-2.457-0.27-0.407-0.039-0.815 0.476-0.775 1.713 0.144 3.748-0.158 5.216-0.565 1.442-0.381 3.323-1.143 4.752-2.155 0.425-0.315 0.85-0.092 0.824 0.447-0.090 2.628-1.88 4.743-4.585 5.505zM9.162 13.815c-0.966 0.276-1.095 0.933-1.507 0.998-0.193 0.039-0.425-0.184-0.541-0.565-0.309-1.117 0.386-2.312 1.494-2.588 1.12-0.276 2.267 0.394 2.55 1.471 0.116 0.394 0.013 0.696-0.193 0.775-0.476 0.171-0.927-0.329-1.803-0.092zM17.017 11.647c-0.966 0.289-1.095 0.933-1.507 0.985-0.193 0.039-0.425-0.184-0.541-0.552-0.309-1.104 0.386-2.312 1.494-2.588 1.133-0.302 2.267 0.381 2.55 1.471 0.116 0.407 0.013 0.696-0.193 0.775-0.464 0.171-0.927-0.342-1.803-0.092zM41.847 8.572l-12.75-3.482c-2.267-0.617-3.864 0.066-4.52 2.115l-0.154 0.565 1.417 5.387c1.416 5.374 0.258 9.919-3.039 12.862 1.262 2.128 3.503 3.718 6.465 4.519 6.323 1.721 11.127-1.274 12.904-8.027l2.434-9.17c0.644-2.483-0.283-4.099-2.756-4.769zM28.866 16.534c-0.889-0.223-1.417-1.143-1.172-2.076 0.245-0.907 1.146-1.445 2.035-1.196s1.417 1.182 1.185 2.089c-0.245 0.907-1.146 1.432-2.048 1.182zM36.425 18.597c-0.876-0.236-1.404-1.169-1.159-2.089 0.232-0.906 1.133-1.432 2.022-1.182 0.901 0.223 1.416 1.156 1.185 2.076-0.245 0.907-1.146 1.445-2.048 1.196zM31.003 23.642c-1.339-0.381-2.627-0.394-4.276-0.026-0.515 0.118-0.824-0.315-0.554-0.749 1.108-1.774 3.348-2.509 5.525-1.892 2.254 0.578 3.786 2.338 3.863 4.44 0.026 0.526-0.451 0.749-0.837 0.394-1.275-1.182-2.37-1.813-3.722-2.168z"></path>
</symbol>
<symbol id="icon-Abstract390" viewBox="0 0 29 32">
<path d="M9.711 29.862c-2.771-0.783-5.673-1.177-8.487-1.539-0.606-0.076-1.169 0.347-1.212 0.943-0.087 0.597 0.347 1.142 0.91 1.218 2.728 0.348 5.542 0.721 8.184 1.474 0.563 0.163 1.169-0.173 1.343-0.752s-0.173-1.181-0.736-1.345z"></path>
<path d="M18.111 18.766c-4.46-4.58-9.483-8.571-13.856-13.274-0.39-0.439-1.083-0.463-1.516-0.053s-0.476 1.101-0.043 1.54c4.373 4.717 9.396 8.721 13.856 13.315 0.433 0.429 1.126 0.435 1.559 0.013 0.39-0.421 0.433-1.112 0-1.54z"></path>
<path d="M26.469 1.149c0.13 2.622 0.259 5.243 0.389 7.865 0 0.6 0.52 1.064 1.126 1.035s1.039-0.541 1.039-1.142c-0.13-2.626-0.26-5.251-0.389-7.877-0.043-0.601-0.563-1.061-1.169-1.028-0.563 0.033-1.039 0.547-0.996 1.147z"></path>
</symbol>
<symbol id="icon-burger390" viewBox="0 0 31 32">
<path d="M3.886 9.2c0-0.537 0.435-0.971 0.971-0.971h21.371c0.537 0 0.971 0.435 0.971 0.971s-0.435 0.971-0.971 0.971h-21.371c-0.537 0-0.971-0.435-0.971-0.971zM3.886 16c0-0.537 0.435-0.971 0.971-0.971h21.371c0.537 0 0.971 0.435 0.971 0.971s-0.435 0.971-0.971 0.971h-21.371c-0.537 0-0.971-0.435-0.971-0.971zM14.571 22.8c0-0.537 0.435-0.971 0.971-0.971h10.686c0.537 0 0.971 0.435 0.971 0.971s-0.435 0.971-0.971 0.971h-10.686c-0.537 0-0.971-0.435-0.971-0.971z"></path>
</symbol>
<symbol id="icon-facebook" viewBox="0 0 32 32">
<path d="M32 16c0-8.837-7.163-16-16-16s-16 7.163-16 16c0 7.986 5.851 14.605 13.5 15.806v-11.181h-4.063v-4.625h4.063v-3.525c0-4.010 2.389-6.225 6.043-6.225 1.75 0 3.582 0.313 3.582 0.313v3.938h-2.017c-1.988 0-2.608 1.233-2.608 2.5v3h4.437l-0.709 4.625h-3.728v11.181c7.649-1.2 13.5-7.82 13.5-15.806z"></path>
</symbol>
<symbol id="icon-galka" viewBox="0 0 32 32">
<path d="M26.728 6.646c0.527 0.402 0.629 1.155 0.227 1.682l-12.8 16.8c-0.21 0.275-0.528 0.447-0.874 0.47s-0.684-0.104-0.929-0.349l-7.2-7.2c-0.469-0.469-0.469-1.228 0-1.697s1.228-0.469 1.697 0l6.229 6.229 11.968-15.708c0.402-0.527 1.155-0.629 1.682-0.227z"></path>
</symbol>
<symbol id="icon-graystrilka" viewBox="0 0 32 32">
<path fill="none" stroke="#4c4c4c" style="stroke: var(--color3, #4c4c4c)" stroke-linejoin="round" stroke-linecap="round" stroke-miterlimit="4" stroke-width="3.2" d="M8.001 16h16.667M24.667 16l-8-8M24.667 16l-8 8"></path>
</symbol>
<symbol id="icon-Icon" viewBox="0 0 30 32">
<path fill="#fff" style="fill: var(--color4, #fff)" d="M4.571 16c0-0.631 0.512-1.143 1.143-1.143h16.21l-6.336-6.033c-0.455-0.437-0.469-1.161-0.032-1.616s1.161-0.469 1.616-0.032l8.381 8c0.224 0.216 0.351 0.513 0.351 0.824s-0.127 0.608-0.351 0.824l-8.381 8c-0.455 0.438-1.178 0.423-1.616-0.032s-0.423-1.178 0.032-1.616l6.336-6.033h-16.21c-0.631 0-1.143-0.512-1.143-1.143z"></path>
</symbol>
<symbol id="icon-in" viewBox="0 0 32 32">
<path d="M29.631 0h-27.269c-1.306 0-2.362 1.031-2.362 2.306v27.381c0 1.275 1.056 2.312 2.362 2.312h27.269c1.306 0 2.369-1.037 2.369-2.306v-27.387c0-1.275-1.063-2.306-2.369-2.306zM9.494 27.269h-4.75v-15.275h4.75v15.275zM7.119 9.912c-1.525 0-2.756-1.231-2.756-2.75s1.231-2.75 2.756-2.75c1.519 0 2.75 1.231 2.75 2.75 0 1.512-1.231 2.75-2.75 2.75zM27.269 27.269h-4.744v-7.425c0-1.769-0.031-4.050-2.469-4.050-2.469 0-2.844 1.931-2.844 3.925v7.55h-4.737v-15.275h4.55v2.088h0.063c0.631-1.2 2.181-2.469 4.488-2.469 4.806 0 5.694 3.162 5.694 7.275v8.381z"></path>
</symbol>
<symbol id="icon-konvert" viewBox="0 0 32 32">
<path d="M2 11.559v11.441c0 2.209 1.791 4 4 4h20c2.209 0 4-1.791 4-4v-11.441l-11.904 7.325c-1.286 0.791-2.907 0.791-4.193 0l-11.904-7.325z"></path>
<path d="M30 9.21v-0.21c0-2.209-1.791-4-4-4h-20c-2.209 0-4 1.791-4 4v0.21l12.952 7.97c0.643 0.396 1.453 0.396 2.096 0l12.952-7.97z"></path>
</symbol>
<symbol id="icon-krest" viewBox="0 0 32 32">
<path d="M10.049 8.351c-0.469-0.469-1.228-0.469-1.697 0s-0.469 1.228 0 1.697l5.951 5.951-5.951 5.951c-0.469 0.469-0.469 1.229 0 1.697s1.228 0.469 1.697 0l5.951-5.952 5.951 5.952c0.469 0.469 1.229 0.469 1.697 0s0.469-1.228 0-1.697l-5.952-5.951 5.952-5.951c0.469-0.469 0.469-1.228 0-1.697s-1.228-0.469-1.697 0l-5.951 5.951-5.951-5.951z"></path>
</symbol>
<symbol id="icon-krest20" viewBox="0 0 32 32">
<path stroke-linejoin="round" stroke-linecap="round" stroke-miterlimit="4" stroke-width="3.2" d="M9.011 22.99l6.99-6.99M22.991 9.010l-6.99 6.99M16.001 16l-6.99-6.99M16.001 16l6.99 6.99"></path>
</symbol>
<symbol id="icon-location" viewBox="0 0 32 32">
<path d="M15.386 29.801c-0.081-0.047-0.196-0.115-0.34-0.204-0.289-0.178-0.698-0.441-1.185-0.785-0.974-0.688-2.274-1.709-3.576-3.042-2.592-2.654-5.285-6.641-5.285-11.77 0-6.075 4.925-11 11-11s11 4.925 11 11c0 5.128-2.692 9.116-5.285 11.77-1.302 1.333-2.602 2.354-3.576 3.042-0.488 0.345-0.896 0.607-1.185 0.785-0.145 0.089-0.26 0.157-0.34 0.204-0.040 0.023-0.072 0.041-0.094 0.054l-0.038 0.021c-0.297 0.161-0.666 0.163-0.963-0.001l-0.037-0.021c-0.022-0.013-0.054-0.031-0.094-0.054zM16 18c2.209 0 4-1.791 4-4s-1.791-4-4-4-4 1.791-4 4c0 2.209 1.791 4 4 4z"></path>
</symbol>
<symbol id="icon-logo" viewBox="0 0 32 32">
<path fill="#fff" style="fill: var(--color4, #fff)" d="M3.858 28.782l8.308-8.308h8.308v-8.308l8.308 8.308-8.308 8.308h-16.616z"></path>
<path fill="#fff" style="fill: var(--color4, #fff)" d="M3.858 12.166l8.308 8.308v-8.308h8.308l8.308-8.308h-16.616l-8.308 8.308z"></path>
</symbol>
<symbol id="icon-logo390" viewBox="0 0 31 32">
<path fill="#fff" style="fill: var(--color4, #fff)" d="M3.378 28.744l8.284-8.284h8.283v-8.284l8.284 8.284-8.284 8.284h-16.567z"></path>
<path fill="#fff" style="fill: var(--color4, #fff)" d="M3.378 12.177l8.284 8.284v-8.284h8.283l8.284-8.284h-16.567l-8.284 8.284z"></path>
</symbol>
<symbol id="icon-orangestrilka" viewBox="0 0 32 32">
<path fill="#ff9500" style="fill: var(--color2, #ff9500)" d="M8.351 23.648c0.469 0.469 1.228 0.469 1.697 0l11.551-11.551v9.103c0 0.663 0.537 1.2 1.2 1.2s1.2-0.537 1.2-1.2v-12c0-0.663-0.537-1.2-1.2-1.2h-12c-0.663 0-1.2 0.537-1.2 1.2s0.537 1.2 1.2 1.2h9.103l-11.551 11.552c-0.469 0.469-0.469 1.228 0 1.697z"></path>
</symbol>
<symbol id="icon-orstrilka390" viewBox="0 0 32 32">
<path fill="#ff9500" style="fill: var(--color2, #ff9500)" d="M8.351 23.648c0.469 0.469 1.228 0.469 1.697 0l11.551-11.551v9.103c0 0.663 0.537 1.2 1.2 1.2s1.2-0.537 1.2-1.2v-12c0-0.663-0.537-1.2-1.2-1.2h-12c-0.663 0-1.2 0.537-1.2 1.2s0.537 1.2 1.2 1.2h9.103l-11.551 11.552c-0.469 0.469-0.469 1.228 0 1.697z"></path>
</symbol>
<symbol id="icon-plus" viewBox="0 0 32 32">
<path stroke-linejoin="round" stroke-linecap="round" stroke-miterlimit="4" stroke-width="3.2" d="M8 16h8M24 16h-8M16 16v-8M16 16v8"></path>
</symbol>
<symbol id="icon-strilka" viewBox="0 0 30 32">
<path fill="#fff" style="fill: var(--color4, #fff)" d="M4.571 16c0-0.631 0.512-1.143 1.143-1.143h16.21l-6.336-6.033c-0.455-0.437-0.469-1.161-0.032-1.616s1.161-0.469 1.616-0.032l8.381 8c0.224 0.216 0.351 0.513 0.351 0.824s-0.127 0.608-0.351 0.824l-8.381 8c-0.455 0.438-1.178 0.423-1.616-0.032s-0.423-1.178 0.032-1.616l6.336-6.033h-16.21c-0.631 0-1.143-0.512-1.143-1.143z"></path>
</symbol>
<symbol id="icon-trybka" viewBox="0 0 32 32">
<path d="M2 6c0-2.209 1.791-4 4-4h1.829c1.147 0 2.147 0.781 2.425 1.894l1.474 5.898c0.244 0.976-0.121 2.003-0.925 2.606l-1.725 1.294c-0.179 0.134-0.218 0.331-0.168 0.468 1.514 4.133 4.797 7.416 8.93 8.93 0.137 0.050 0.334 0.011 0.468-0.168l1.294-1.725c0.604-0.805 1.631-1.169 2.606-0.925l5.898 1.474c1.113 0.278 1.894 1.278 1.894 2.425v1.829c0 2.209-1.791 4-4 4h-3c-11.598 0-21-9.402-21-21v-3z"></path>
</symbol>
<symbol id="icon-twiter" viewBox="0 0 32 32">
<path d="M10.067 28.999c12.072 0 18.677-10.004 18.677-18.677 0-0.281-0.006-0.569-0.019-0.85 1.285-0.929 2.394-2.080 3.274-3.399-1.197 0.532-2.467 0.88-3.768 1.031 1.37-0.821 2.396-2.111 2.887-3.631-1.289 0.764-2.698 1.302-4.168 1.593-0.99-1.052-2.299-1.749-3.725-1.982s-2.889 0.009-4.163 0.691c-1.274 0.681-2.288 1.764-2.885 3.079s-0.745 2.791-0.419 4.199c-2.609-0.131-5.162-0.809-7.493-1.99s-4.387-2.838-6.036-4.865c-0.838 1.445-1.095 3.155-0.717 4.782s1.36 3.050 2.748 3.979c-1.042-0.033-2.062-0.314-2.974-0.819v0.081c-0.001 1.516 0.523 2.986 1.484 4.16s2.297 1.978 3.784 2.278c-0.966 0.264-1.979 0.303-2.962 0.112 0.42 1.304 1.236 2.445 2.335 3.263s2.426 1.272 3.795 1.3c-2.325 1.827-5.198 2.817-8.154 2.812-0.524-0.001-1.048-0.033-1.569-0.096 3.004 1.927 6.498 2.951 10.067 2.949z"></path>
</symbol>
<symbol id="icon-zoom390" viewBox="0 0 67 32">
<path fill="#4c4c4d" style="fill: var(--color5, #4c4c4d)" d="M53.583 13.733c-0.258-0.445-0.628-0.815-1.073-1.072s-0.951-0.392-1.465-0.393c-0.514 0-1.019 0.135-1.464 0.392s-0.816 0.625-1.074 1.070c-0.25 0.433-0.327 0.92-0.358 1.474l-0.036 0.734v5.131l-0.039 0.735c-0.048 1.218-0.935 2.081-2.162 2.162l-0.734 0.036v-14.666c0.734 0 2.012 0.37 2.583 1.008 0.936-0.638 2.067-1.008 3.285-1.008 0.833-0 1.656 0.177 2.415 0.52s1.436 0.843 1.986 1.468c0.55-0.625 1.227-1.126 1.986-1.469s1.582-0.52 2.415-0.519c1.556 0.001 3.047 0.619 4.147 1.719s1.718 2.592 1.718 4.148v8.798l-0.731-0.036c-1.213-0.069-2.091-0.956-2.166-2.162l-0.036-0.735v-5.133l-0.036-0.731c-0.030-0.538-0.108-1.037-0.357-1.468-0.257-0.446-0.626-0.816-1.071-1.074s-0.95-0.394-1.464-0.395-1.019 0.133-1.465 0.39c-0.446 0.256-0.816 0.625-1.074 1.070-0.253 0.434-0.334 0.933-0.364 1.477l-0.036 0.734v8.064l-0.731-0.036c-1.209-0.075-2.094-0.962-2.166-2.162l-0.036-0.735v-5.131l-0.035-0.734c-0.027-0.551-0.109-1.040-0.358-1.471zM3.378 23.966l0.734 0.035h10.999l-0.036-0.732c-0.099-1.206-0.953-2.087-2.163-2.165l-0.734-0.036h-6.599l8.798-8.801-0.036-0.731c-0.057-1.218-0.947-2.098-2.163-2.165l-0.734-0.033-10.999-0.003 0.036 0.734c0.096 1.194 0.962 2.094 2.162 2.163l0.735 0.036h6.599l-8.798 8.801 0.036 0.734c0.072 1.209 0.945 2.084 2.163 2.162v0.001zM42.298 11.482c0.681 0.681 1.221 1.489 1.59 2.379s0.558 1.843 0.558 2.806-0.19 1.917-0.558 2.806c-0.369 0.89-0.909 1.698-1.59 2.379-1.376 1.375-3.242 2.147-5.187 2.147s-3.811-0.772-5.187-2.147c-2.863-2.864-2.863-7.507 0-10.371 0.681-0.681 1.488-1.221 2.377-1.589s1.842-0.558 2.805-0.558c0.964-0.001 1.919 0.189 2.809 0.557s1.7 0.909 2.382 1.591v-0.001zM40.223 13.559c0.825 0.825 1.288 1.945 1.288 3.111s-0.463 2.286-1.288 3.111c-0.825 0.825-1.945 1.288-3.111 1.288s-2.286-0.463-3.111-1.288c-0.825-0.825-1.288-1.945-1.288-3.111s0.463-2.286 1.288-3.111c0.825-0.825 1.945-1.288 3.111-1.288s2.286 0.463 3.111 1.288zM21.716 9.335c0.963 0 1.916 0.19 2.805 0.559s1.697 0.909 2.377 1.59c2.864 2.863 2.864 7.507 0 10.37-1.376 1.375-3.241 2.147-5.187 2.147s-3.811-0.772-5.187-2.147c-2.864-2.864-2.864-7.507 0-10.371 0.68-0.681 1.488-1.221 2.377-1.589s1.842-0.558 2.805-0.558h0.009zM24.823 13.558c0.825 0.825 1.289 1.945 1.289 3.112s-0.463 2.286-1.289 3.112c-0.825 0.825-1.945 1.288-3.112 1.288s-2.286-0.463-3.111-1.288c-0.825-0.825-1.288-1.945-1.288-3.111s0.463-2.286 1.288-3.111c0.825-0.825 1.945-1.288 3.111-1.288s2.286 0.463 3.112 1.288v-0.001z"></path>
</symbol>
<symbol id="icon-spotify390" viewBox="0 0 95 32">
<path fill="#4c4c4d" style="fill: var(--color5, #4c4c4d)" d="M14.718 2.053c-7.732 0-14 6.268-14 14s6.268 14 14 14c7.733 0 14-6.268 14-14 0-7.731-6.268-13.999-14.001-13.999l0-0.001zM21.138 22.245c-0.251 0.411-0.789 0.542-1.2 0.289-3.287-2.008-7.425-2.463-12.298-1.349-0.47 0.107-0.938-0.187-1.045-0.657s0.186-0.938 0.656-1.045c5.333-1.218 9.908-0.694 13.598 1.561 0.411 0.252 0.542 0.789 0.289 1.2zM22.852 18.433c-0.316 0.514-0.988 0.676-1.501 0.36-3.763-2.313-9.5-2.983-13.951-1.632-0.577 0.174-1.187-0.151-1.362-0.727-0.174-0.577 0.152-1.186 0.728-1.361 5.085-1.543 11.405-0.795 15.727 1.86 0.513 0.316 0.675 0.988 0.359 1.501v-0zM22.999 14.463c-4.512-2.68-11.957-2.927-16.265-1.619-0.692 0.21-1.423-0.181-1.633-0.873s0.181-1.423 0.873-1.634c4.945-1.501 13.166-1.211 18.362 1.873 0.624 0.369 0.827 1.173 0.458 1.794-0.368 0.622-1.174 0.827-1.794 0.458h-0.001zM38.807 14.977c-2.417-0.576-2.847-0.981-2.847-1.831 0-0.803 0.756-1.344 1.881-1.344 1.090 0 2.17 0.41 3.303 1.255 0.033 0.026 0.077 0.036 0.119 0.029 0.043-0.006 0.080-0.030 0.105-0.065l1.18-1.664c0.048-0.069 0.035-0.163-0.030-0.215-1.349-1.082-2.867-1.608-4.643-1.608-2.61 0-4.434 1.566-4.434 3.807 0 2.403 1.573 3.254 4.292 3.911 2.312 0.533 2.703 0.979 2.703 1.777 0 0.884-0.789 1.434-2.060 1.434-1.411 0-2.563-0.476-3.85-1.59-0.032-0.028-0.075-0.040-0.115-0.038-0.043 0.003-0.082 0.023-0.109 0.055l-1.324 1.575c-0.055 0.067-0.049 0.164 0.015 0.221 1.498 1.337 3.34 2.043 5.33 2.043 2.812 0 4.629-1.536 4.629-3.915 0.005-2.007-1.197-3.119-4.141-3.835l-0.005-0.002zM49.317 12.593c-1.219 0-2.219 0.48-3.044 1.464v-1.107c0-0.087-0.070-0.159-0.157-0.159h-2.165c-0.087 0-0.157 0.071-0.157 0.159v12.305c0 0.087 0.070 0.159 0.157 0.159h2.165c0.087 0 0.157-0.072 0.157-0.159v-3.884c0.826 0.925 1.826 1.378 3.044 1.378 2.265 0 4.559-1.744 4.559-5.077 0.003-3.334-2.29-5.078-4.557-5.078l-0.002 0zM51.358 17.671c0 1.697-1.045 2.882-2.543 2.882-1.48 0-2.596-1.239-2.596-2.882s1.117-2.882 2.596-2.882c1.473-0 2.543 1.212 2.543 2.882v0zM59.752 12.593c-2.917 0-5.203 2.246-5.203 5.114 0 2.837 2.27 5.059 5.168 5.059 2.927 0 5.219-2.239 5.219-5.096 0-2.847-2.277-5.078-5.184-5.078v-0zM59.752 20.569c-1.551 0-2.722-1.247-2.722-2.9 0-1.66 1.13-2.864 2.687-2.864 1.561 0 2.738 1.247 2.738 2.901 0 1.66-1.137 2.863-2.703 2.863zM71.165 12.791h-2.382v-2.435c0-0.087-0.070-0.158-0.157-0.158h-2.165c-0.087 0-0.159 0.071-0.159 0.158v2.435h-1.040c-0.087 0-0.157 0.071-0.157 0.159v1.86c0 0.087 0.070 0.159 0.157 0.159h1.040v4.814c0 1.944 0.968 2.931 2.879 2.931 0.776 0 1.419-0.161 2.026-0.505 0.050-0.027 0.080-0.080 0.080-0.137v-1.772c0-0.053-0.028-0.105-0.075-0.134-0.047-0.030-0.105-0.032-0.154-0.007-0.416 0.209-0.819 0.306-1.271 0.306-0.694 0-1.005-0.316-1.005-1.021v-4.474h2.382c0.087 0 0.157-0.071 0.157-0.159v-1.86c0.003-0.087-0.067-0.159-0.155-0.159l-0.002-0.001zM79.464 12.8v-0.299c0-0.88 0.338-1.272 1.093-1.272 0.451 0 0.814 0.090 1.22 0.225 0.050 0.016 0.102 0.008 0.142-0.022 0.042-0.030 0.065-0.078 0.065-0.129v-1.824c0-0.070-0.043-0.131-0.112-0.152-0.428-0.128-0.976-0.258-1.799-0.258-1.998 0-3.056 1.126-3.056 3.255v0.458h-1.040c-0.087 0-0.159 0.071-0.159 0.159v1.87c0 0.087 0.072 0.159 0.159 0.159h1.040v7.424c0 0.089 0.072 0.159 0.159 0.159h2.163c0.089 0 0.159-0.070 0.159-0.159v-7.423h2.021l3.096 7.423c-0.351 0.779-0.697 0.935-1.169 0.935-0.381 0-0.784-0.114-1.194-0.339-0.038-0.020-0.085-0.023-0.125-0.012-0.042 0.015-0.077 0.045-0.094 0.085l-0.734 1.61c-0.035 0.077-0.005 0.166 0.069 0.206 0.766 0.415 1.456 0.592 2.31 0.592 1.598 0 2.483-0.746 3.26-2.748l3.755-9.703c0.020-0.049 0.013-0.104-0.017-0.147-0.028-0.043-0.077-0.069-0.129-0.069h-2.254c-0.069 0-0.129 0.043-0.15 0.106l-2.309 6.593-2.528-6.597c-0.023-0.061-0.082-0.102-0.147-0.102l-3.698-0.001zM74.653 12.791h-2.165c-0.087 0-0.159 0.071-0.159 0.159v9.443c0 0.089 0.072 0.159 0.159 0.159h2.165c0.087 0 0.159-0.070 0.159-0.159v-9.442c0-0.087-0.070-0.159-0.159-0.159v-0.001zM73.583 8.491c-0.858 0-1.553 0.694-1.553 1.552s0.695 1.553 1.553 1.553c0.858 0 1.551-0.695 1.551-1.553s-0.695-1.552-1.551-1.552zM92.545 15.827c-0.856 0-1.523-0.688-1.523-1.523s0.675-1.531 1.531-1.531c0.856 0 1.523 0.688 1.523 1.523s-0.675 1.532-1.531 1.532zM92.553 12.924c-0.781 0-1.371 0.62-1.371 1.38s0.587 1.371 1.363 1.371c0.781 0 1.371-0.62 1.371-1.38s-0.587-1.371-1.363-1.371zM92.891 14.451l0.431 0.603h-0.364l-0.388-0.553h-0.333v0.553h-0.304v-1.599h0.712c0.373 0 0.617 0.19 0.617 0.51 0.002 0.262-0.151 0.422-0.369 0.486h-0.002zM92.633 13.73h-0.396v0.506h0.396c0.197 0 0.316-0.097 0.316-0.253 0-0.165-0.119-0.253-0.316-0.253z"></path>
</symbol>
<symbol id="icon-zaiper390" viewBox="0 0 65 32">
<path fill="#4c4c4d" style="fill: var(--color5, #4c4c4d)" d="M0.224 23.597l6.57-10.223h-5.791c-0.049-0.294-0.070-0.617-0.070-0.975 0-0.344 0.021-0.659 0.070-0.947h9.374l0.119 0.316-6.619 10.244h6.205c0.049 0.323 0.070 0.659 0.070 0.996 0 0.323-0.021 0.631-0.070 0.925h-9.739l-0.119-0.337z"></path>
<path fill="#4c4c4d" style="fill: var(--color5, #4c4c4d)" d="M19.183 15.709c0-0.961-0.245-1.62-0.729-1.998-0.484-0.372-1.192-0.561-2.117-0.561-0.568 0-1.101 0.042-1.591 0.133-0.498 0.091-0.975 0.203-1.451 0.351-0.309-0.533-0.463-1.178-0.463-1.921 0.554-0.175 1.157-0.316 1.823-0.414s1.304-0.147 1.921-0.147c1.62 0 2.854 0.372 3.702 1.108 0.841 0.736 1.269 1.921 1.269 3.541v7.811c-0.568 0.126-1.255 0.267-2.068 0.4-0.813 0.14-1.641 0.203-2.482 0.203-0.792 0-1.514-0.070-2.152-0.217s-1.185-0.379-1.634-0.708c-0.449-0.323-0.792-0.736-1.038-1.241s-0.365-1.115-0.365-1.823c0-0.694 0.14-1.311 0.428-1.837 0.28-0.526 0.666-0.967 1.157-1.311 0.484-0.351 1.045-0.61 1.683-0.778 0.631-0.168 1.297-0.259 1.998-0.259 0.519 0 0.947 0.014 1.276 0.035s0.61 0.056 0.841 0.084v-0.449h-0.007zM19.183 18.072c-0.245-0.035-0.554-0.063-0.925-0.098s-0.687-0.049-0.947-0.049c-1.010 0-1.774 0.189-2.3 0.561s-0.792 0.939-0.792 1.704c0 0.484 0.091 0.869 0.266 1.143s0.4 0.484 0.666 0.631c0.266 0.147 0.561 0.238 0.89 0.266 0.323 0.035 0.631 0.049 0.925 0.049 0.372 0 0.757-0.021 1.157-0.063s0.75-0.098 1.059-0.182v-3.961z"></path>
<path fill="#4c4c4d" style="fill: var(--color5, #4c4c4d)" d="M24.175 11.454c0.161-0.035 0.33-0.056 0.498-0.070s0.343-0.021 0.526-0.021c0.161 0 0.329 0.007 0.512 0.021 0.175 0.014 0.351 0.042 0.512 0.070 0.014 0.035 0.035 0.133 0.063 0.302 0.021 0.168 0.049 0.351 0.070 0.547s0.049 0.379 0.070 0.561c0.021 0.182 0.035 0.294 0.035 0.344 0.161-0.259 0.358-0.512 0.582-0.757s0.498-0.463 0.813-0.659c0.316-0.196 0.673-0.351 1.073-0.463s0.841-0.168 1.325-0.168c0.729 0 1.409 0.119 2.033 0.365s1.157 0.617 1.606 1.129c0.449 0.512 0.792 1.164 1.045 1.949s0.379 1.718 0.379 2.79c0 2.145-0.582 3.821-1.739 5.027-1.164 1.206-2.805 1.816-4.929 1.816-0.357 0-0.722-0.021-1.094-0.070s-0.701-0.112-0.975-0.196v5.721c-0.196 0.035-0.4 0.056-0.624 0.070-0.217 0.014-0.421 0.021-0.596 0.021s-0.379-0.007-0.596-0.021c-0.217-0.014-0.421-0.042-0.596-0.070v-18.237h0.007zM26.587 21.893c0.309 0.112 0.624 0.196 0.947 0.245s0.743 0.070 1.269 0.070c0.582 0 1.122-0.091 1.606-0.28s0.905-0.477 1.255-0.862c0.351-0.393 0.624-0.883 0.827-1.472s0.301-1.297 0.301-2.103c0-1.297-0.238-2.328-0.715-3.092s-1.262-1.143-2.349-1.143c-0.407 0-0.792 0.070-1.171 0.217-0.372 0.147-0.708 0.365-0.996 0.659-0.295 0.295-0.526 0.659-0.708 1.108s-0.267 0.975-0.267 1.592v5.062z"></path>
<path fill="#4c4c4d" style="fill: var(--color5, #4c4c4d)" d="M38.317 13.346h-1.585c-0.035-0.133-0.056-0.28-0.070-0.449s-0.021-0.337-0.021-0.498c0-0.161 0.007-0.33 0.021-0.498s0.042-0.323 0.070-0.449h3.947v12.487c-0.175 0.035-0.379 0.056-0.596 0.070s-0.421 0.021-0.596 0.021c-0.161 0-0.351-0.007-0.575-0.021-0.217-0.014-0.421-0.042-0.596-0.070v-10.594z"></path>
<path fill="#4c4c4d" style="fill: var(--color5, #4c4c4d)" d="M45.861 18.289c0.035 1.36 0.386 2.363 1.059 2.994s1.669 0.947 2.98 0.947c1.15 0 2.251-0.203 3.288-0.61 0.133 0.245 0.238 0.54 0.315 0.89 0.084 0.351 0.126 0.694 0.147 1.038-0.533 0.224-1.122 0.4-1.767 0.512-0.638 0.112-1.353 0.168-2.131 0.168-1.136 0-2.11-0.161-2.924-0.477s-1.479-0.764-2.005-1.339-0.911-1.255-1.157-2.047c-0.245-0.785-0.365-1.648-0.365-2.594 0-0.925 0.119-1.788 0.351-2.594s0.596-1.5 1.080-2.096c0.484-0.589 1.101-1.066 1.837-1.409 0.736-0.351 1.613-0.526 2.615-0.526 0.862 0 1.613 0.147 2.265 0.442s1.192 0.694 1.634 1.206c0.435 0.512 0.771 1.122 0.996 1.823 0.224 0.708 0.344 1.472 0.344 2.3 0 0.224-0.007 0.47-0.028 0.715-0.014 0.252-0.035 0.47-0.049 0.645h-8.484v0.014zM52.045 16.487c0-0.456-0.063-0.89-0.182-1.304s-0.301-0.771-0.533-1.080c-0.238-0.308-0.533-0.554-0.897-0.743s-0.799-0.28-1.304-0.28c-0.989 0-1.746 0.301-2.279 0.897-0.526 0.603-0.848 1.437-0.961 2.51h6.156z"></path>
<path fill="#4c4c4d" style="fill: var(--color5, #4c4c4d)" d="M57.086 11.453c0.175-0.035 0.351-0.056 0.512-0.070s0.33-0.021 0.512-0.021c0.175 0 0.358 0.007 0.533 0.021s0.344 0.042 0.484 0.070c0.049 0.245 0.098 0.561 0.147 0.961s0.070 0.736 0.070 1.010c0.344-0.554 0.792-1.031 1.353-1.437s1.276-0.61 2.152-0.61c0.133 0 0.267 0.007 0.4 0.014 0.14 0.007 0.252 0.021 0.351 0.035 0.035 0.147 0.056 0.302 0.070 0.463s0.021 0.33 0.021 0.512c0 0.196-0.014 0.4-0.035 0.61s-0.056 0.414-0.084 0.61c-0.133-0.035-0.267-0.049-0.4-0.049-0.14 0-0.245 0-0.329 0-0.435 0-0.855 0.063-1.255 0.182s-0.757 0.337-1.073 0.645c-0.316 0.308-0.568 0.729-0.757 1.269-0.189 0.533-0.28 1.227-0.28 2.068v6.205c-0.175 0.035-0.379 0.056-0.596 0.070s-0.421 0.021-0.596 0.021c-0.175 0-0.379-0.007-0.596-0.021s-0.428-0.042-0.624-0.070v-12.487h0.021z"></path>
<path fill="#4c4c4d" style="fill: var(--color5, #4c4c4d)" d="M42.972 4.105h-2.356l1.669-1.669c-0.133-0.182-0.28-0.358-0.435-0.519-0.161-0.161-0.329-0.308-0.519-0.435l-1.669 1.669v-2.356c-0.217-0.035-0.442-0.056-0.673-0.056h-0.007c-0.231 0-0.456 0.021-0.673 0.056v2.356l-1.669-1.669c-0.182 0.133-0.358 0.28-0.519 0.435-0.161 0.161-0.301 0.33-0.435 0.519l1.676 1.669h-2.356c0 0-0.056 0.442-0.056 0.673s0.021 0.456 0.056 0.673h2.356l-1.669 1.669c0.259 0.365 0.582 0.687 0.953 0.954l1.669-1.669v2.356c0.217 0.035 0.442 0.056 0.673 0.056h0.007c0.231 0 0.456-0.021 0.673-0.056v-2.356l1.669 1.669c0.182-0.133 0.358-0.28 0.519-0.435 0.161-0.161 0.309-0.33 0.435-0.519l-1.669-1.669h2.356c0.035-0.217 0.056-0.442 0.056-0.673v-0.007c-0.007-0.224-0.021-0.449-0.063-0.666zM39.999 4.786c0 0.301-0.056 0.589-0.154 0.855-0.266 0.098-0.554 0.154-0.855 0.154s-0.589-0.056-0.855-0.154c-0.098-0.266-0.154-0.554-0.154-0.855v-0.007c0-0.301 0.056-0.589 0.154-0.855 0.266-0.098 0.554-0.154 0.855-0.154s0.589 0.056 0.855 0.154c0.098 0.266 0.154 0.554 0.154 0.862z"></path>
</symbol>
<symbol id="icon-lightnin390" viewBox="0 0 32 32">
<path d="M19.487 2.127c0.402 0.224 0.599 0.693 0.478 1.137l-2.655 9.737h9.691c0.398 0 0.759 0.236 0.917 0.601s0.086 0.79-0.186 1.081l-14 15c-0.314 0.336-0.816 0.415-1.218 0.191s-0.599-0.693-0.478-1.137l2.656-9.737h-9.691c-0.398 0-0.758-0.236-0.917-0.601s-0.086-0.79 0.186-1.081l14-15c0.314-0.336 0.816-0.415 1.218-0.191z"></path>
</symbol>
<symbol id="icon-Abstract-Design1440" viewBox="0 0 44 32">
<path fill="#f7f7f8" style="fill: var(--color1, #f7f7f8)" d="M4.593 34.37l11.94-11.94h11.94v-11.94l11.94 11.94-11.94 11.94h-23.88z"></path>
<path fill="#f7f7f8" style="fill: var(--color1, #f7f7f8)" d="M4.593 10.489l11.94 11.94v-11.94h11.94l11.94-11.94h-23.88l-11.94 11.94z"></path>
</symbol>
</defs>
</svg>
