<!-- Generated by IcoMoon.io -->
<svg version="1.1" xmlns="http://www.w3.org/2000/svg" width="45" height="32" viewBox="0 0 45 32">
<path fill="#ff9500" d="M16.863 27.149c6.349-1.747 9.066-6.766 7.276-13.532l-2.408-9.197c-0.657-2.47-2.254-3.363-4.713-2.706l-12.762 3.455c-2.473 0.683-3.387 2.26-2.73 4.782l2.395 9.183c1.764 6.753 6.594 9.748 12.943 8.014zM15.652 22.446c-2.692 0.709-5.306-0.223-6.684-2.457-0.27-0.407-0.039-0.815 0.476-0.775 1.713 0.144 3.748-0.158 5.216-0.565 1.442-0.381 3.323-1.143 4.752-2.155 0.425-0.315 0.85-0.092 0.824 0.447-0.090 2.628-1.88 4.743-4.585 5.505zM9.162 13.815c-0.966 0.276-1.095 0.933-1.507 0.998-0.193 0.039-0.425-0.184-0.541-0.565-0.309-1.117 0.386-2.312 1.494-2.588 1.12-0.276 2.267 0.394 2.55 1.471 0.116 0.394 0.013 0.696-0.193 0.775-0.476 0.171-0.927-0.329-1.803-0.092zM17.017 11.647c-0.966 0.289-1.095 0.933-1.507 0.985-0.193 0.039-0.425-0.184-0.541-0.552-0.309-1.104 0.386-2.312 1.494-2.588 1.133-0.302 2.267 0.381 2.55 1.471 0.116 0.407 0.013 0.696-0.193 0.775-0.464 0.171-0.927-0.342-1.803-0.092zM41.847 8.572l-12.75-3.482c-2.267-0.617-3.864 0.066-4.52 2.115l-0.154 0.565 1.417 5.387c1.416 5.374 0.258 9.919-3.039 12.862 1.262 2.128 3.503 3.718 6.465 4.519 6.323 1.721 11.127-1.274 12.904-8.027l2.434-9.17c0.644-2.483-0.283-4.099-2.756-4.769zM28.866 16.534c-0.889-0.223-1.417-1.143-1.172-2.076 0.245-0.907 1.146-1.445 2.035-1.196s1.417 1.182 1.185 2.089c-0.245 0.907-1.146 1.432-2.048 1.182zM36.425 18.597c-0.876-0.236-1.404-1.169-1.159-2.089 0.232-0.906 1.133-1.432 2.022-1.182 0.901 0.223 1.416 1.156 1.185 2.076-0.245 0.907-1.146 1.445-2.048 1.196zM31.003 23.642c-1.339-0.381-2.627-0.394-4.276-0.026-0.515 0.118-0.824-0.315-0.554-0.749 1.108-1.774 3.348-2.509 5.525-1.892 2.254 0.578 3.786 2.338 3.863 4.44 0.026 0.526-0.451 0.749-0.837 0.394-1.275-1.182-2.37-1.813-3.722-2.168z"></path>
</svg>
