<!-- Generated by IcoMoon.io -->
<svg version="1.1" xmlns="http://www.w3.org/2000/svg" width="32" height="32" viewBox="0 0 32 32">
<path d="M2 6c0-2.209 1.791-4 4-4h1.829c1.147 0 2.147 0.781 2.425 1.894l1.474 5.898c0.244 0.976-0.121 2.003-0.925 2.606l-1.725 1.294c-0.179 0.134-0.218 0.331-0.168 0.468 1.514 4.133 4.797 7.416 8.93 8.93 0.137 0.050 0.334 0.011 0.468-0.168l1.294-1.725c0.604-0.805 1.631-1.169 2.606-0.925l5.898 1.474c1.113 0.278 1.894 1.278 1.894 2.425v1.829c0 2.209-1.791 4-4 4h-3c-11.598 0-21-9.402-21-21v-3z"></path>
</svg>
