<!-- Generated by IcoMoon.io -->
<svg version="1.1" xmlns="http://www.w3.org/2000/svg" width="65" height="32" viewBox="0 0 65 32">
<path fill="#4c4c4d" d="M0.224 23.597l6.57-10.223h-5.791c-0.049-0.294-0.070-0.617-0.070-0.975 0-0.344 0.021-0.659 0.070-0.947h9.374l0.119 0.316-6.619 10.244h6.205c0.049 0.323 0.070 0.659 0.070 0.996 0 0.323-0.021 0.631-0.070 0.925h-9.739l-0.119-0.337z"></path>
<path fill="#4c4c4d" d="M19.183 15.709c0-0.961-0.245-1.62-0.729-1.998-0.484-0.372-1.192-0.561-2.117-0.561-0.568 0-1.101 0.042-1.591 0.133-0.498 0.091-0.975 0.203-1.451 0.351-0.309-0.533-0.463-1.178-0.463-1.921 0.554-0.175 1.157-0.316 1.823-0.414s1.304-0.147 1.921-0.147c1.62 0 2.854 0.372 3.702 1.108 0.841 0.736 1.269 1.921 1.269 3.541v7.811c-0.568 0.126-1.255 0.267-2.068 0.4-0.813 0.14-1.641 0.203-2.482 0.203-0.792 0-1.514-0.070-2.152-0.217s-1.185-0.379-1.634-0.708c-0.449-0.323-0.792-0.736-1.038-1.241s-0.365-1.115-0.365-1.823c0-0.694 0.14-1.311 0.428-1.837 0.28-0.526 0.666-0.967 1.157-1.311 0.484-0.351 1.045-0.61 1.683-0.778 0.631-0.168 1.297-0.259 1.998-0.259 0.519 0 0.947 0.014 1.276 0.035s0.61 0.056 0.841 0.084v-0.449h-0.007zM19.183 18.072c-0.245-0.035-0.554-0.063-0.925-0.098s-0.687-0.049-0.947-0.049c-1.010 0-1.774 0.189-2.3 0.561s-0.792 0.939-0.792 1.704c0 0.484 0.091 0.869 0.266 1.143s0.4 0.484 0.666 0.631c0.266 0.147 0.561 0.238 0.89 0.266 0.323 0.035 0.631 0.049 0.925 0.049 0.372 0 0.757-0.021 1.157-0.063s0.75-0.098 1.059-0.182v-3.961z"></path>
<path fill="#4c4c4d" d="M24.175 11.454c0.161-0.035 0.33-0.056 0.498-0.070s0.343-0.021 0.526-0.021c0.161 0 0.329 0.007 0.512 0.021 0.175 0.014 0.351 0.042 0.512 0.070 0.014 0.035 0.035 0.133 0.063 0.302 0.021 0.168 0.049 0.351 0.070 0.547s0.049 0.379 0.070 0.561c0.021 0.182 0.035 0.294 0.035 0.344 0.161-0.259 0.358-0.512 0.582-0.757s0.498-0.463 0.813-0.659c0.316-0.196 0.673-0.351 1.073-0.463s0.841-0.168 1.325-0.168c0.729 0 1.409 0.119 2.033 0.365s1.157 0.617 1.606 1.129c0.449 0.512 0.792 1.164 1.045 1.949s0.379 1.718 0.379 2.79c0 2.145-0.582 3.821-1.739 5.027-1.164 1.206-2.805 1.816-4.929 1.816-0.357 0-0.722-0.021-1.094-0.070s-0.701-0.112-0.975-0.196v5.721c-0.196 0.035-0.4 0.056-0.624 0.070-0.217 0.014-0.421 0.021-0.596 0.021s-0.379-0.007-0.596-0.021c-0.217-0.014-0.421-0.042-0.596-0.070v-18.237h0.007zM26.587 21.893c0.309 0.112 0.624 0.196 0.947 0.245s0.743 0.070 1.269 0.070c0.582 0 1.122-0.091 1.606-0.28s0.905-0.477 1.255-0.862c0.351-0.393 0.624-0.883 0.827-1.472s0.301-1.297 0.301-2.103c0-1.297-0.238-2.328-0.715-3.092s-1.262-1.143-2.349-1.143c-0.407 0-0.792 0.070-1.171 0.217-0.372 0.147-0.708 0.365-0.996 0.659-0.295 0.295-0.526 0.659-0.708 1.108s-0.267 0.975-0.267 1.592v5.062z"></path>
<path fill="#4c4c4d" d="M38.317 13.346h-1.585c-0.035-0.133-0.056-0.28-0.070-0.449s-0.021-0.337-0.021-0.498c0-0.161 0.007-0.33 0.021-0.498s0.042-0.323 0.070-0.449h3.947v12.487c-0.175 0.035-0.379 0.056-0.596 0.070s-0.421 0.021-0.596 0.021c-0.161 0-0.351-0.007-0.575-0.021-0.217-0.014-0.421-0.042-0.596-0.070v-10.594z"></path>
<path fill="#4c4c4d" d="M45.861 18.289c0.035 1.36 0.386 2.363 1.059 2.994s1.669 0.947 2.98 0.947c1.15 0 2.251-0.203 3.288-0.61 0.133 0.245 0.238 0.54 0.315 0.89 0.084 0.351 0.126 0.694 0.147 1.038-0.533 0.224-1.122 0.4-1.767 0.512-0.638 0.112-1.353 0.168-2.131 0.168-1.136 0-2.11-0.161-2.924-0.477s-1.479-0.764-2.005-1.339-0.911-1.255-1.157-2.047c-0.245-0.785-0.365-1.648-0.365-2.594 0-0.925 0.119-1.788 0.351-2.594s0.596-1.5 1.080-2.096c0.484-0.589 1.101-1.066 1.837-1.409 0.736-0.351 1.613-0.526 2.615-0.526 0.862 0 1.613 0.147 2.265 0.442s1.192 0.694 1.634 1.206c0.435 0.512 0.771 1.122 0.996 1.823 0.224 0.708 0.344 1.472 0.344 2.3 0 0.224-0.007 0.47-0.028 0.715-0.014 0.252-0.035 0.47-0.049 0.645h-8.484v0.014zM52.045 16.487c0-0.456-0.063-0.89-0.182-1.304s-0.301-0.771-0.533-1.080c-0.238-0.308-0.533-0.554-0.897-0.743s-0.799-0.28-1.304-0.28c-0.989 0-1.746 0.301-2.279 0.897-0.526 0.603-0.848 1.437-0.961 2.51h6.156z"></path>
<path fill="#4c4c4d" d="M57.086 11.453c0.175-0.035 0.351-0.056 0.512-0.070s0.33-0.021 0.512-0.021c0.175 0 0.358 0.007 0.533 0.021s0.344 0.042 0.484 0.070c0.049 0.245 0.098 0.561 0.147 0.961s0.070 0.736 0.070 1.010c0.344-0.554 0.792-1.031 1.353-1.437s1.276-0.61 2.152-0.61c0.133 0 0.267 0.007 0.4 0.014 0.14 0.007 0.252 0.021 0.351 0.035 0.035 0.147 0.056 0.302 0.070 0.463s0.021 0.33 0.021 0.512c0 0.196-0.014 0.4-0.035 0.61s-0.056 0.414-0.084 0.61c-0.133-0.035-0.267-0.049-0.4-0.049-0.14 0-0.245 0-0.329 0-0.435 0-0.855 0.063-1.255 0.182s-0.757 0.337-1.073 0.645c-0.316 0.308-0.568 0.729-0.757 1.269-0.189 0.533-0.28 1.227-0.28 2.068v6.205c-0.175 0.035-0.379 0.056-0.596 0.070s-0.421 0.021-0.596 0.021c-0.175 0-0.379-0.007-0.596-0.021s-0.428-0.042-0.624-0.070v-12.487h0.021z"></path>
<path fill="#4c4c4d" d="M42.972 4.105h-2.356l1.669-1.669c-0.133-0.182-0.28-0.358-0.435-0.519-0.161-0.161-0.329-0.308-0.519-0.435l-1.669 1.669v-2.356c-0.217-0.035-0.442-0.056-0.673-0.056h-0.007c-0.231 0-0.456 0.021-0.673 0.056v2.356l-1.669-1.669c-0.182 0.133-0.358 0.28-0.519 0.435-0.161 0.161-0.301 0.33-0.435 0.519l1.676 1.669h-2.356c0 0-0.056 0.442-0.056 0.673s0.021 0.456 0.056 0.673h2.356l-1.669 1.669c0.259 0.365 0.582 0.687 0.953 0.954l1.669-1.669v2.356c0.217 0.035 0.442 0.056 0.673 0.056h0.007c0.231 0 0.456-0.021 0.673-0.056v-2.356l1.669 1.669c0.182-0.133 0.358-0.28 0.519-0.435 0.161-0.161 0.309-0.33 0.435-0.519l-1.669-1.669h2.356c0.035-0.217 0.056-0.442 0.056-0.673v-0.007c-0.007-0.224-0.021-0.449-0.063-0.666zM39.999 4.786c0 0.301-0.056 0.589-0.154 0.855-0.266 0.098-0.554 0.154-0.855 0.154s-0.589-0.056-0.855-0.154c-0.098-0.266-0.154-0.554-0.154-0.855v-0.007c0-0.301 0.056-0.589 0.154-0.855 0.266-0.098 0.554-0.154 0.855-0.154s0.589 0.056 0.855 0.154c0.098 0.266 0.154 0.554 0.154 0.862z"></path>
</svg>
