<!-- Generated by IcoMoon.io -->
<svg version="1.1" xmlns="http://www.w3.org/2000/svg" width="67" height="32" viewBox="0 0 67 32">
<path fill="#4c4c4d" d="M53.583 13.733c-0.258-0.445-0.628-0.815-1.073-1.072s-0.951-0.392-1.465-0.393c-0.514 0-1.019 0.135-1.464 0.392s-0.816 0.625-1.074 1.070c-0.25 0.433-0.327 0.92-0.358 1.474l-0.036 0.734v5.131l-0.039 0.735c-0.048 1.218-0.935 2.081-2.162 2.162l-0.734 0.036v-14.666c0.734 0 2.012 0.37 2.583 1.008 0.936-0.638 2.067-1.008 3.285-1.008 0.833-0 1.656 0.177 2.415 0.52s1.436 0.843 1.986 1.468c0.55-0.625 1.227-1.126 1.986-1.469s1.582-0.52 2.415-0.519c1.556 0.001 3.047 0.619 4.147 1.719s1.718 2.592 1.718 4.148v8.798l-0.731-0.036c-1.213-0.069-2.091-0.956-2.166-2.162l-0.036-0.735v-5.133l-0.036-0.731c-0.030-0.538-0.108-1.037-0.357-1.468-0.257-0.446-0.626-0.816-1.071-1.074s-0.95-0.394-1.464-0.395-1.019 0.133-1.465 0.39c-0.446 0.256-0.816 0.625-1.074 1.070-0.253 0.434-0.334 0.933-0.364 1.477l-0.036 0.734v8.064l-0.731-0.036c-1.209-0.075-2.094-0.962-2.166-2.162l-0.036-0.735v-5.131l-0.035-0.734c-0.027-0.551-0.109-1.040-0.358-1.471zM3.378 23.966l0.734 0.035h10.999l-0.036-0.732c-0.099-1.206-0.953-2.087-2.163-2.165l-0.734-0.036h-6.599l8.798-8.801-0.036-0.731c-0.057-1.218-0.947-2.098-2.163-2.165l-0.734-0.033-10.999-0.003 0.036 0.734c0.096 1.194 0.962 2.094 2.162 2.163l0.735 0.036h6.599l-8.798 8.801 0.036 0.734c0.072 1.209 0.945 2.084 2.163 2.162v0.001zM42.298 11.482c0.681 0.681 1.221 1.489 1.59 2.379s0.558 1.843 0.558 2.806-0.19 1.917-0.558 2.806c-0.369 0.89-0.909 1.698-1.59 2.379-1.376 1.375-3.242 2.147-5.187 2.147s-3.811-0.772-5.187-2.147c-2.863-2.864-2.863-7.507 0-10.371 0.681-0.681 1.488-1.221 2.377-1.589s1.842-0.558 2.805-0.558c0.964-0.001 1.919 0.189 2.809 0.557s1.7 0.909 2.382 1.591v-0.001zM40.223 13.559c0.825 0.825 1.288 1.945 1.288 3.111s-0.463 2.286-1.288 3.111c-0.825 0.825-1.945 1.288-3.111 1.288s-2.286-0.463-3.111-1.288c-0.825-0.825-1.288-1.945-1.288-3.111s0.463-2.286 1.288-3.111c0.825-0.825 1.945-1.288 3.111-1.288s2.286 0.463 3.111 1.288zM21.716 9.335c0.963 0 1.916 0.19 2.805 0.559s1.697 0.909 2.377 1.59c2.864 2.863 2.864 7.507 0 10.37-1.376 1.375-3.241 2.147-5.187 2.147s-3.811-0.772-5.187-2.147c-2.864-2.864-2.864-7.507 0-10.371 0.68-0.681 1.488-1.221 2.377-1.589s1.842-0.558 2.805-0.558h0.009zM24.823 13.558c0.825 0.825 1.289 1.945 1.289 3.112s-0.463 2.286-1.289 3.112c-0.825 0.825-1.945 1.288-3.112 1.288s-2.286-0.463-3.111-1.288c-0.825-0.825-1.288-1.945-1.288-3.111s0.463-2.286 1.288-3.111c0.825-0.825 1.945-1.288 3.111-1.288s2.286 0.463 3.112 1.288v-0.001z"></path>
</svg>
